# xmcd
#
# Track frame offsets:
#	150
#	7765
#	26342
#	44096
#	61839
#	75472
#	93140
#	111568
#	120964
#	138783
#	153852
#	167367
#	181776
#	195734
#	214069
#
# Disc length: 3034 seconds
# Revision: 0
# Processed by: cddbd v1.5.2PL0 Copyright (c) Steve Scherf et al.
# Submitted via: dBpowerAMP V12.0
#
DISCID=ab0bd80f
DTITLE=Fenouil et les Fines herbes - Sauge qui peut
DYEAR=2010
DGENRE=Chanson
TTITLE0=Le bus
TTITLE1=La peur du vide
TTITLE2=Fils de putain
TTITLE3=Tante Rachel
TTITLE4=Marie-Jeanne
TTITLE5=Au Mont Valerien
TTITLE6=Jacky
TTITLE7=Mama Liberte
TTITLE8=Little El' H
TTITLE9=Les gens de coeur
TTITLE10=L'Ecluse
TTITLE11=Le Viellard
TTITLE12=Aie, les fines herbes
TTITLE13=Alain
TTITLE14=Merci
EXTD=
EXTT0=
EXTT1=
EXTT2=
EXTT3=
EXTT4=
EXTT5=
EXTT6=
EXTT7=
EXTT8=
EXTT9=
EXTT10=
EXTT11=
EXTT12=
EXTT13=
EXTT14=
PLAYORDER=
